<svg width="26" height="26" fill="none" xmlns="http://www.w3.org/2000/svg"><path d="M13 2.35h5.325c1.253 0 1.88.314 2.35.47.626.314 1.096.47 1.566.94s.783.94.94 1.566c.156.47.313 1.097.47 2.35v10.65c0 1.253-.314 1.88-.47 2.35-.314.626-.47 1.096-.94 1.566s-.94.783-1.566.94c-.47.156-1.097.313-2.35.47H7.675c-1.253 0-1.88-.314-2.35-.47-.626-.314-1.096-.47-1.566-.94s-.783-.94-.94-1.566c-.156-.47-.313-1.097-.47-2.35V7.676c0-1.253.314-1.88.47-2.35.314-.626.47-1.096.94-1.566s.94-.783 1.566-.94c.47-.156 1.097-.313 2.35-.47H13zm0-2.349H7.675c-1.41 0-2.35.313-3.133.626a6.84 6.84 0 00-2.35 1.567c-.782.783-1.096 1.41-1.565 2.35C.313 5.325.157 6.265 0 7.675v10.65c0 1.41.313 2.35.627 3.133a6.84 6.84 0 001.566 2.35c.783.782 1.41 1.096 2.35 1.566.782.313 1.722.47 3.132.626h10.65c1.41 0 2.35-.313 3.133-.627a6.84 6.84 0 002.35-1.566c.782-.783 1.096-1.41 1.566-2.35.313-.782.47-1.722.626-3.132V7.675c0-1.41-.313-2.35-.627-3.133a6.839 6.839 0 00-1.566-2.35c-.783-.782-1.41-1.096-2.35-1.566-.782-.313-1.722-.47-3.132-.626H13z" fill="#070707"/><path d="M13 6.266a6.685 6.685 0 00-6.735 6.735A6.685 6.685 0 0013 19.736 6.685 6.685 0 0019.735 13 6.685 6.685 0 0013 6.266zm0 11.12c-2.35 0-4.386-1.879-4.386-4.385 0-2.35 1.88-4.386 4.386-4.386 2.35 0 4.386 1.88 4.386 4.386 0 2.35-2.037 4.386-4.386 4.386zm6.892-9.71a1.566 1.566 0 100-3.133 1.566 1.566 0 000 3.133z" fill="#070707"/></svg>