<svg width="28" height="28" fill="none" xmlns="http://www.w3.org/2000/svg"><path d="M23.305 4.682A13.557 13.557 0 0013.698.701C6.183.7.095 6.768.095 14.256c0 2.37.666 4.74 1.807 6.73L0 28.001l7.23-1.896c1.997 1.043 4.185 1.612 6.468 1.612 7.514 0 13.602-6.067 13.602-13.556-.095-3.507-1.427-6.92-3.995-9.479zM20.26 19.091c-.285.758-1.617 1.516-2.283 1.611a5.333 5.333 0 01-2.093-.095c-.475-.19-1.141-.379-1.902-.758-3.425-1.422-5.612-4.835-5.803-5.119-.19-.19-1.426-1.8-1.426-3.507 0-1.706.856-2.465 1.141-2.844.285-.38.666-.38.951-.38h.666c.19 0 .476-.094.761.57.286.663.951 2.37 1.046 2.464.096.19.096.38 0 .569-.095.19-.19.38-.38.569-.19.19-.38.474-.476.569-.19.19-.38.379-.19.663.19.38.856 1.422 1.903 2.37 1.331 1.137 2.378 1.517 2.758 1.706.38.19.57.095.761-.095.19-.19.856-.948 1.046-1.327.19-.379.476-.284.761-.19.286.095 1.998.948 2.283 1.138.38.19.571.285.666.38.095.284.095.947-.19 1.705z" fill="#070707"/></svg>