<svg width="22" height="22" fill="none" xmlns="http://www.w3.org/2000/svg"><path fill-rule="evenodd" clip-rule="evenodd" d="M20.668 18.631c0 .148-.295.266-.443.473-.4.445-.835.86-1.299 1.24a6.2 6.2 0 01-5.756 0 22.465 22.465 0 01-6.73-4.724 21.963 21.963 0 01-4.724-6.73 6.288 6.288 0 010-5.905c.372-.47.787-.905 1.24-1.298l.502-.443a1.18 1.18 0 011.741 0L8.447 4.46a1.27 1.27 0 010 1.801l-.886.856a1.919 1.919 0 00-.325 2.273 13.195 13.195 0 005.343 5.373 1.977 1.977 0 002.274-.354l.885-.886a1.238 1.238 0 011.771 0l3.218 3.247a1.269 1.269 0 01-.059 1.86z" fill="#FAFAFA"/></svg>