<svg width="20" height="20" fill="none" xmlns="http://www.w3.org/2000/svg"><g clip-path="url(#clip0_31_955)"><path d="M10 0a6.949 6.949 0 00-6.94 6.94c0 3.685 6.297 12.292 6.565 12.656l.25.34a.155.155 0 00.25 0l.25-.34c.269-.364 6.566-8.971 6.566-12.655A6.949 6.949 0 0010 0zm0 4.455a2.489 2.489 0 012.486 2.486A2.49 2.49 0 0110 9.427a2.49 2.49 0 01-2.486-2.486A2.49 2.49 0 0110 4.455z" fill="#FAFAFA"/></g><defs><clipPath id="clip0_31_955"><path fill="#fff" d="M0 0h20v20H0z"/></clipPath></defs></svg>