<svg width="98" height="91" fill="none" xmlns="http://www.w3.org/2000/svg"><path d="M37.769 14.375c0 1.051.113 2.076.329 3.063h12.945a4.095 4.095 0 014.082 4.082v6.817a14.33 14.33 0 01-1.334.227c7.078-.854 12.563-6.881 12.563-14.19 0-7.893-6.4-14.292-14.293-14.292-7.893 0-14.292 6.4-14.292 14.293zm57.171 4.594c0 5.92-4.8 10.719-10.72 10.719-5.92 0-10.718-4.8-10.718-10.72C73.502 13.05 78.3 8.25 84.22 8.25s10.718 4.8 10.718 10.719zM93.406 32.75A4.594 4.594 0 0198 37.346v22.779a15.332 15.332 0 01-18.48 14.994 15.682 15.682 0 01-4.02-1.536 24.485 24.485 0 01-44.63 5.107 21.967 21.967 0 01-1.532-3.063h21.714c.3.004.6-.037.888-.123a4.042 4.042 0 003.185-3.95V32.75h38.282z" fill="#000"/><path fill-rule="evenodd" clip-rule="evenodd" d="M4.082 20.5h40.836A4.082 4.082 0 0149 24.583v40.835a4.082 4.082 0 01-4.082 4.082H4.082A4.083 4.083 0 010 65.418V24.583A4.083 4.083 0 014.082 20.5zM36.69 35.737h-9.157v24.561h-6.008V35.737h-9.212v-6.033H36.69v6.033z" fill="#000"/></svg>