<svg width="98" height="98" fill="none" xmlns="http://www.w3.org/2000/svg"><path d="M48.93 78.494c-16.28 0-23.718-8.293-23.718-14.376a5.276 5.276 0 015.566-5.276c6.97 0 5.147 10.455 18.151 10.455 6.648 0 10.552-4.001 10.552-7.76 0-2.26-1.29-4.84-5.68-5.873L39.282 52c-11.665-2.969-13.698-9.455-13.698-15.473 0-12.488 11.423-17.005 22.297-17.005 10.02 0 21.927 5.534 21.927 13.02 0 3.227-2.694 4.953-5.825 4.953-5.953 0-4.953-8.357-16.924-8.357-5.954 0-9.084 2.79-9.084 6.695 0 3.905 4.63 5.228 8.696 6.115l10.714 2.42C69.13 47.015 72.26 53.904 72.26 60.503c0 10.148-7.857 17.99-23.346 17.99M93.88 57.019c.465-2.664.698-5.363.694-8.067A45.854 45.854 0 0040.781 3.598 26.977 26.977 0 0027.261 0 27.428 27.428 0 003.59 40.997a45.886 45.886 0 0053.115 53.405A26.96 26.96 0 0070.21 98a27.429 27.429 0 0023.67-40.981z" fill="#121212"/></svg>