<svg width="98" height="98" fill="none" xmlns="http://www.w3.org/2000/svg"><path d="M59.444 41.84a1.197 1.197 0 01-1.195-1.137c-.203-4.067-2.12-6.058-6.03-6.269a1.198 1.198 0 01.13-2.392c5.16.284 8.028 3.231 8.292 8.542a1.199 1.199 0 01-1.137 1.256h-.06z" fill="#000"/><path d="M65.565 43.901h.029a1.199 1.199 0 001.196-1.175c.105-4.678-1.326-8.661-4.204-11.81-2.879-3.148-6.927-4.935-12.034-5.309a1.2 1.2 0 10-.175 2.394c4.539.333 7.943 1.81 10.442 4.537 2.499 2.727 3.669 6.043 3.576 10.138a1.198 1.198 0 001.17 1.225z" fill="#000"/><path d="M71.886 46.36a1.2 1.2 0 01-1.198-1.19c-.056-7.324-2.165-12.919-6.45-17.1-4.232-4.123-9.58-6.238-15.895-6.284a1.2 1.2 0 01-1.194-1.202 1.198 1.198 0 011.202-1.194h.01c6.954.051 12.859 2.394 17.55 6.965 4.693 4.571 7.112 10.908 7.175 18.801a1.198 1.198 0 01-1.188 1.207l-.012-.003zm-16.774 9.356c-.907 1.117-2.591.975-2.591.975-12.311-3.143-15.606-15.613-15.606-15.613s-.148-1.684.975-2.591l2.224-1.768c1.103-.85 1.807-2.913.684-4.927a52.114 52.114 0 00-2.806-4.398c-.98-1.337-3.26-4.077-3.27-4.085-1.1-1.298-2.717-1.6-4.423-.71a.05.05 0 00-.019.004.062.062 0 01-.016.004 18.412 18.412 0 00-4.545 3.696.057.057 0 00-.012.015c-1.054 1.272-1.657 2.518-1.81 3.74-.031.18-.042.363-.033.546a4.98 4.98 0 00.244 1.589l.058.04c.531 1.887 1.862 5.032 4.753 10.274a61.241 61.241 0 005.701 8.63 45.232 45.232 0 003.443 3.881l.044.044.087.087.392.392a45.263 45.263 0 003.882 3.443 61.18 61.18 0 008.631 5.702c5.241 2.89 8.388 4.221 10.273 4.753l.04.058c.513.167 1.05.25 1.589.245.183.008.366-.003.546-.035 1.223-.145 2.469-.747 3.737-1.806a.057.057 0 00.015-.013 18.453 18.453 0 003.697-4.545l.004-.016a.08.08 0 00.004-.019c.888-1.706.587-3.323-.718-4.425-.002 0-.108-.088-.288-.236-.74-.61-2.722-2.242-3.797-3.033a52.144 52.144 0 00-4.394-2.806c-2.016-1.123-4.074-.42-4.927.684l-1.768 2.224z" fill="#000"/><path fill-rule="evenodd" clip-rule="evenodd" d="M83.777 11.677C81.423 9.505 71.91 2.6 50.722 2.506c0 0-24.986-1.507-37.166 9.666-6.78 6.781-9.165 16.705-9.417 29.007-.251 12.303-.577 35.358 21.647 41.61h.021l-.014 9.54s-.142 3.861 2.401 4.649c2.567.797 4.25-1.116 6.442-3.61a75.99 75.99 0 011.376-1.534c1.612-1.738 3.838-4.289 5.515-6.24 15.2 1.28 26.89-1.644 28.217-2.076.274-.089.662-.188 1.144-.31 4.91-1.248 19.543-4.97 22.115-25.964 2.916-23.762-1.41-38.792-9.226-45.567zm2.575 43.863c-2.146 17.332-13.78 20.039-17.97 21.014a15.99 15.99 0 00-1.096.278c-1.104.355-11.371 2.91-24.282 2.066 0 0-9.62 11.606-12.625 14.624-.47.472-1.02.662-1.389.569-.517-.127-.66-.74-.654-1.635.009-1.28.083-15.852.083-15.852-18.179-5.047-17.755-23.561-17.514-34.07l.023-1.048c.213-10.275 2.143-18.693 7.877-24.355C29.108 7.8 50.332 9.194 50.332 9.194c17.922.078 26.51 5.475 28.502 7.283 6.613 5.662 9.982 19.21 7.518 39.057v.006z" fill="#000"/></svg>