<svg width="107" height="107" fill="none" xmlns="http://www.w3.org/2000/svg"><path d="M90.53 15.466C80.555 5.523 67.252 0 53.21 0 24.018 0 .37 23.567.37 52.657c0 9.206 2.586 18.411 7.02 26.144L0 106.05l28.083-7.365c7.76 4.051 16.259 6.26 25.127 6.26 29.191 0 52.84-23.566 52.84-52.656-.37-13.625-5.543-26.881-15.52-36.823zm-11.824 55.97c-1.108 2.946-6.282 5.892-8.868 6.26-2.217.369-5.173.369-8.13-.368-1.847-.736-4.434-1.473-7.39-2.946-13.302-5.523-21.8-18.78-22.54-19.884-.739-.736-5.543-6.996-5.543-13.625 0-6.628 3.326-9.573 4.434-11.046 1.109-1.473 2.587-1.473 3.696-1.473h2.586c.74 0 1.848-.369 2.956 2.209 1.109 2.578 3.695 9.206 4.065 9.574.37.736.37 1.473 0 2.21-.37.736-.74 1.472-1.478 2.209-.74.736-1.478 1.84-1.848 2.21-.739.736-1.478 1.472-.739 2.577.74 1.473 3.326 5.523 7.39 9.205 5.174 4.42 9.238 5.892 10.716 6.629 1.479.736 2.218.368 2.956-.369.74-.736 3.326-3.682 4.065-5.155.74-1.473 1.848-1.105 2.956-.736 1.109.368 7.76 3.682 8.869 4.418 1.478.737 2.217 1.105 2.586 1.473.37 1.105.37 3.683-.739 6.628z" fill="#121212"/></svg>