<svg width="20" height="22" fill="none" xmlns="http://www.w3.org/2000/svg"><path d="M19.332 6.548L.576 15.861M8.574 2.752a2.551 2.551 0 01-.395 2.82 2.635 2.635 0 01-2.78.74 2.607 2.607 0 01-1.228-.857 2.56 2.56 0 01-.228-2.837A2.593 2.593 0 015.02 1.581a2.63 2.63 0 012.928.353c.262.228.475.507.626.818zm7.452 14.62a2.596 2.596 0 01-.368 2.888 2.645 2.645 0 01-1.813.897 2.677 2.677 0 01-1.924-.634 2.593 2.593 0 01-.777-2.807c.222-.66.7-1.204 1.328-1.515a2.677 2.677 0 012.023-.142 2.64 2.64 0 011.531 1.313z" stroke="#fff" stroke-linecap="round" stroke-linejoin="round"/></svg>